HIERARCHY
ROOT hip
{
  OFFSET 0 90.174 2.4664
  CHANNELS 6 Xposition Yposition Zposition Zrotation Xrotation Yrotation
  JOINT abdomen
  {
    OFFSET 0 -1.186 -1.5018
    CHANNELS 6 Xposition Yposition Zposition Zrotation Xrotation Yrotation
    JOINT abdomen2
    {
      OFFSET 0 9.964 0.2134
      CHANNELS 6 Xposition Yposition Zposition Zrotation Xrotation Yrotation
      JOINT chest
      {
        OFFSET 0 13.134 -3.2573
        CHANNELS 6 Xposition Yposition Zposition Zrotation Xrotation Yrotation
        JOINT neck
        {
          OFFSET 0 20.686 -1.6905
          CHANNELS 6 Xposition Yposition Zposition Zrotation Xrotation Yrotation
          JOINT head
          {
            OFFSET 0 7.238 -0.1237
            CHANNELS 6 Xposition Yposition Zposition Zrotation Xrotation Yrotation
            End Site
            {
              OFFSET 0 0 0
            }
          }
        }
        JOINT lCollar
        {
          OFFSET 1.7069 20.075 5.0056
          CHANNELS 6 Xposition Yposition Zposition Zrotation Xrotation Yrotation
          JOINT lShldr
          {
            OFFSET 13.6458 -0.047 -4.849
            CHANNELS 6 Xposition Yposition Zposition Zrotation Xrotation Yrotation
            JOINT lForeArm
            {
              OFFSET 28.3255 -0.9759 2.2888
              CHANNELS 6 Xposition Yposition Zposition Zrotation Xrotation Yrotation
              JOINT lHand
              {
                OFFSET 22.1583 -0.53 10.8316
                CHANNELS 6 Xposition Yposition Zposition Zrotation Xrotation Yrotation
                JOINT lThumb1
                {
                  OFFSET 0.786 0.112 2.5817
                  CHANNELS 6 Xposition Yposition Zposition Zrotation Xrotation Yrotation
                  JOINT lThumb2
                  {
                    OFFSET 0.3601 -0.878 4.2331
                    CHANNELS 6 Xposition Yposition Zposition Zrotation Xrotation Yrotation
                    JOINT lThumb2_End
                    {
                      OFFSET 1.8127 -1.216 2.2227
                      CHANNELS 6 Xposition Yposition Zposition Zrotation Xrotation Yrotation
                      End Site
                      {
                        OFFSET 0.0181 -0.0122 0.0222
                      }
                    }
                  }
                }
                JOINT lCarpal1
                {
                  OFFSET 0.9571 1.114 1.7695
                  CHANNELS 6 Xposition Yposition Zposition Zrotation Xrotation Yrotation
                  JOINT lIndex1
                  {
                    OFFSET 4.1246 0.487 4.1451
                    CHANNELS 6 Xposition Yposition Zposition Zrotation Xrotation Yrotation
                    JOINT lIndex2
                    {
                      OFFSET 3.4052 -1.454 2.7682
                      CHANNELS 6 Xposition Yposition Zposition Zrotation Xrotation Yrotation
                      JOINT lIndex2_End
                      {
                        OFFSET 1.4531 -1.795 1.2713
                        CHANNELS 6 Xposition Yposition Zposition Zrotation Xrotation Yrotation
                        End Site
                        {
                          OFFSET 0.0145 -0.0179 0.0127
                        }
                      }
                    }
                  }
                  JOINT lMid1
                  {
                    OFFSET 5.6954 0.21 2.1184
                    CHANNELS 6 Xposition Yposition Zposition Zrotation Xrotation Yrotation
                    JOINT lMid2
                    {
                      OFFSET 3.9766 -1.54 2.3863
                      CHANNELS 6 Xposition Yposition Zposition Zrotation Xrotation Yrotation
                      JOINT lMid2_End
                      {
                        OFFSET 1.4042 -1.926 1.125
                        CHANNELS 6 Xposition Yposition Zposition Zrotation Xrotation Yrotation
                        End Site
                        {
                          OFFSET 0.014 -0.0193 0.0113
                        }
                      }
                    }
                  }
                }
                JOINT lCarpal2
                {
                  OFFSET 2.0956 0.66 -0.3894
                  CHANNELS 6 Xposition Yposition Zposition Zrotation Xrotation Yrotation
                  JOINT lRing1
                  {
                    OFFSET 5.0395 -0.09 2.4971
                    CHANNELS 6 Xposition Yposition Zposition Zrotation Xrotation Yrotation
                    JOINT lRing2
                    {
                      OFFSET 3.7921 -1.552 1.4806
                      CHANNELS 6 Xposition Yposition Zposition Zrotation Xrotation Yrotation
                      JOINT lRing2_End
                      {
                        OFFSET 1.4655 -1.808 0.9609
                        CHANNELS 6 Xposition Yposition Zposition Zrotation Xrotation Yrotation
                        End Site
                        {
                          OFFSET 0.0147 -0.0181 0.0096
                        }
                      }
                    }
                  }
                  JOINT lPinky1
                  {
                    OFFSET 4.9141 -1.269 0.3591
                    CHANNELS 6 Xposition Yposition Zposition Zrotation Xrotation Yrotation
                    JOINT lPinky2
                    {
                      OFFSET 3.1477 -1.685 0.8462
                      CHANNELS 6 Xposition Yposition Zposition Zrotation Xrotation Yrotation
                      JOINT lPinky2_End
                      {
                        OFFSET 0.8055 -1.585 0.7955
                        CHANNELS 6 Xposition Yposition Zposition Zrotation Xrotation Yrotation
                        End Site
                        {
                          OFFSET 0.0081 -0.0158 0.008
                        }
                      }
                    }
                  }
                }
              }
            }
          }
        }
        JOINT rCollar
        {
          OFFSET -1.7069 20.075 5.0056
          CHANNELS 6 Xposition Yposition Zposition Zrotation Xrotation Yrotation
          JOINT rShldr
          {
            OFFSET -13.6458 -0.047 -4.849
            CHANNELS 6 Xposition Yposition Zposition Zrotation Xrotation Yrotation
            JOINT rForeArm
            {
              OFFSET -28.3255 -0.9759 2.2888
              CHANNELS 6 Xposition Yposition Zposition Zrotation Xrotation Yrotation
              JOINT rHand
              {
                OFFSET -22.1583 -0.53 10.8316
                CHANNELS 6 Xposition Yposition Zposition Zrotation Xrotation Yrotation
                JOINT rThumb1
                {
                  OFFSET -0.786 0.112 2.5817
                  CHANNELS 6 Xposition Yposition Zposition Zrotation Xrotation Yrotation
                  JOINT rThumb2
                  {
                    OFFSET -0.3601 -0.878 4.2331
                    CHANNELS 6 Xposition Yposition Zposition Zrotation Xrotation Yrotation
                    JOINT rThumb2_End
                    {
                      OFFSET -1.8127 -1.216 2.2227
                      CHANNELS 6 Xposition Yposition Zposition Zrotation Xrotation Yrotation
                      End Site
                      {
                        OFFSET -0.0181 -0.0122 0.0222
                      }
                    }
                  }
                }
                JOINT rCarpal1
                {
                  OFFSET -0.9571 1.114 1.7695
                  CHANNELS 6 Xposition Yposition Zposition Zrotation Xrotation Yrotation
                  JOINT rIndex1
                  {
                    OFFSET -4.1246 0.487 4.1451
                    CHANNELS 6 Xposition Yposition Zposition Zrotation Xrotation Yrotation
                    JOINT rIndex2
                    {
                      OFFSET -3.4052 -1.454 2.7682
                      CHANNELS 6 Xposition Yposition Zposition Zrotation Xrotation Yrotation
                      JOINT rIndex2_End
                      {
                        OFFSET -1.4531 -1.795 1.2713
                        CHANNELS 6 Xposition Yposition Zposition Zrotation Xrotation Yrotation
                        End Site
                        {
                          OFFSET -0.0145 -0.018 0.0127
                        }
                      }
                    }
                  }
                  JOINT rMid1
                  {
                    OFFSET -5.6954 0.21 2.1184
                    CHANNELS 6 Xposition Yposition Zposition Zrotation Xrotation Yrotation
                    JOINT rMid2
                    {
                      OFFSET -3.9766 -1.54 2.3863
                      CHANNELS 6 Xposition Yposition Zposition Zrotation Xrotation Yrotation
                      JOINT rMid2_End
                      {
                        OFFSET -1.4042 -1.926 1.125
                        CHANNELS 6 Xposition Yposition Zposition Zrotation Xrotation Yrotation
                        End Site
                        {
                          OFFSET -0.014 -0.0193 0.0113
                        }
                      }
                    }
                  }
                }
                JOINT rCarpal2
                {
                  OFFSET -2.0956 0.66 -0.3894
                  CHANNELS 6 Xposition Yposition Zposition Zrotation Xrotation Yrotation
                  JOINT rRing1
                  {
                    OFFSET -5.0395 -0.09 2.4971
                    CHANNELS 6 Xposition Yposition Zposition Zrotation Xrotation Yrotation
                    JOINT rRing2
                    {
                      OFFSET -3.7921 -1.552 1.4806
                      CHANNELS 6 Xposition Yposition Zposition Zrotation Xrotation Yrotation
                      JOINT rRing2_End
                      {
                        OFFSET -1.4655 -1.808 0.9609
                        CHANNELS 6 Xposition Yposition Zposition Zrotation Xrotation Yrotation
                        End Site
                        {
                          OFFSET -0.0147 -0.0181 0.0096
                        }
                      }
                    }
                  }
                  JOINT rPinky1
                  {
                    OFFSET -4.9141 -1.269 0.3592
                    CHANNELS 6 Xposition Yposition Zposition Zrotation Xrotation Yrotation
                    JOINT rPinky2
                    {
                      OFFSET -3.1477 -1.685 0.8462
                      CHANNELS 6 Xposition Yposition Zposition Zrotation Xrotation Yrotation
                      JOINT rPinky2_End
                      {
                        OFFSET -0.8055 -1.585 0.7955
                        CHANNELS 6 Xposition Yposition Zposition Zrotation Xrotation Yrotation
                        End Site
                        {
                          OFFSET -0.0081 -0.0158 0.008
                        }
                      }
                    }
                  }
                }
              }
            }
          }
        }
      }
    }
  }
  JOINT lThigh
  {
    OFFSET 8.367 -8.2066 0.5982
    CHANNELS 6 Xposition Yposition Zposition Zrotation Xrotation Yrotation
    JOINT lShin
    {
      OFFSET 2.1923 -43.463 -0.4932
      CHANNELS 6 Xposition Yposition Zposition Zrotation Xrotation Yrotation
      JOINT lFoot
      {
        OFFSET 0.7333 -45.8593 -2.6451
        CHANNELS 6 Xposition Yposition Zposition Zrotation Xrotation Yrotation
        End Site
        {
          OFFSET 2.6618 -4.2699 12.3931
        }
      }
    }
  }
  JOINT rThigh
  {
    OFFSET -8.367 -8.2066 0.5982
    CHANNELS 6 Xposition Yposition Zposition Zrotation Xrotation Yrotation
    JOINT rShin
    {
      OFFSET -2.1923 -43.463 -0.4931
      CHANNELS 6 Xposition Yposition Zposition Zrotation Xrotation Yrotation
      JOINT rFoot
      {
        OFFSET -0.7333 -45.8593 -2.6451
        CHANNELS 6 Xposition Yposition Zposition Zrotation Xrotation Yrotation
        End Site
        {
          OFFSET -2.6618 -4.2699 12.3931
        }
      }
    }
  }
}
MOTION
Frames:	4
Frame Time:	0.0333333
0 90.174 2.4664 0 0 -0 0 -1.186 -1.5018 0 0 -0 0 9.964 0.2134 0 0 -0 0 13.134 -3.2573 0 0 -0 0 20.686 -1.6905 0 0 -0 0 7.238 -0.1237 0 0 -0 1.7069 20.075 5.0056 0 0 -0 13.6458 -0.047 -4.849 1.66051 0.0835086 5.75766 28.3255 -0.9759 2.2888 -0.0175111 0.895433 15.7816 22.1583 -0.53 10.8316 7.95139e-016 -1.98785e-016 -0 0.786 0.112 2.5817 5.46658e-016 -3.97569e-016 -0 0.3601 -0.878 4.2331 5.96354e-016 0 -0 1.8127 -1.216 2.2227 3.97569e-016 1.98785e-016 9.54166e-015 0.9571 1.114 1.7695 1.49089e-016 -3.97569e-016 -0 4.1246 0.487 4.1451 6.4605e-016 0 3.18055e-015 3.4052 -1.454 2.7682 5.96354e-016 0 3.18055e-015 1.4531 -1.795 1.2713 8.94531e-016 -1.98785e-016 6.36111e-015 5.6954 0.21 2.1184 6.4605e-016 0 3.18055e-015 3.9766 -1.54 2.3863 5.96354e-016 0 3.18055e-015 1.4042 -1.926 1.125 8.94531e-016 -1.98785e-016 6.36111e-015 2.0956 0.66 -0.3894 1.49089e-016 -3.97569e-016 -0 5.0395 -0.09 2.4971 6.4605e-016 0 3.18055e-015 3.7921 -1.552 1.4806 5.96354e-016 0 3.18055e-015 1.4655 -1.808 0.9609 8.94531e-016 -1.98785e-016 6.36111e-015 4.9141 -1.269 0.3591 6.4605e-016 0 3.18055e-015 3.1477 -1.685 0.8462 5.96354e-016 0 3.18055e-015 0.8055 -1.585 0.7955 8.94531e-016 -1.98785e-016 6.36111e-015 -1.7069 20.075 5.0056 0 0 -0 -13.6458 -0.047 -4.849 -1.4496 0.0636048 -5.0245 -28.3255 -0.9759 2.2888 -1.74811 1.20616 -16.8394 -22.1583 -0.53 10.8316 -1.19271e-015 1.98785e-016 -3.18055e-015 -0.786 0.112 2.5817 -3.97569e-016 1.98785e-016 -3.18055e-015 -0.3601 -0.878 4.2331 -2.98177e-016 1.98785e-016 -3.18055e-015 -1.8127 -1.216 2.2227 -2.98177e-016 3.97569e-016 -0 -0.9571 1.114 1.7695 4.96962e-016 0 -6.36111e-015 -4.1246 0.487 4.1451 -9.93923e-017 3.97569e-016 -0 -3.4052 -1.454 2.7682 -8.94531e-016 5.96354e-016 -0 -1.4531 -1.795 1.2713 -3.97569e-016 3.97569e-016 -0 -5.6954 0.21 2.1184 -9.93923e-017 3.97569e-016 -0 -3.9766 -1.54 2.3863 -8.94531e-016 5.96354e-016 -0 -1.4042 -1.926 1.125 -3.97569e-016 3.97569e-016 -0 -2.0956 0.66 -0.3894 4.96962e-016 0 -6.36111e-015 -5.0395 -0.09 2.4971 -9.93923e-017 3.97569e-016 -0 -3.7921 -1.552 1.4806 -8.94531e-016 5.96354e-016 -0 -1.4655 -1.808 0.9609 -3.97569e-016 3.97569e-016 -0 -4.9141 -1.269 0.3592 -9.93923e-017 3.97569e-016 -0 -3.1477 -1.685 0.8462 -8.94531e-016 5.96354e-016 -0 -0.8055 -1.585 0.7955 -3.97569e-016 3.97569e-016 -0 8.367 -8.2066 0.5982 -4.66115 -1.03232 0.120763 2.1923 -43.463 -0.4932 0.00990601 1.55097 0.177175 0.7333 -45.8593 -2.6451 4.65196 -0.54114 -0.255042 -8.367 -8.2066 0.5982 4.66115 -1.03222 -0.120763 -2.1923 -43.463 -0.4931 -0.00990459 1.5509 -0.177176 -0.7333 -45.8593 -2.6451 -4.65196 -0.541171 0.255041 
-5.94571 79.8095 -2.82221 133.333 0.0398481 6.21124e-010 -7.10543e-015 -1.186 -1.5018 0.00406822 -1.81839 -0.205912 7.10543e-015 9.964 0.2134 0.0015331 -3.63678 -0.412007 0 13.134 -3.2573 0.00155282 -3.63677 -0.412007 0 20.686 -1.6905 2.51675e-005 36.2935 -1.29739e-005 -7.10543e-015 7.238 -0.1237 4.94519e-006 -42.8285 1.09266e-007 1.7069 20.075 5.0056 -16.0149 7.90621 8.20034 13.6458 -0.047 -4.849 0.35022 2.21411 -48.2578 28.3255 -0.9759 2.2888 -9.20551 -8.06807 -9.01846 22.1583 -0.53 10.8316 -36.4184 -10.7926 -28.1394 0.786 0.112 2.5817 -0 -1.59028e-015 -0 0.3601 -0.878 4.2331 -3.18055e-015 -1.59028e-015 6.36111e-015 1.8127 -1.216 2.2227 -3.18055e-015 -5.56597e-015 3.18055e-015 0.9571 1.114 1.7695 3.18055e-015 -3.18055e-015 -0 4.1246 0.487 4.1451 -3.18055e-015 1.43125e-014 -3.18055e-015 3.4052 -1.454 2.7682 -6.36111e-015 1.59028e-015 -3.18055e-015 1.4531 -1.795 1.2713 1.32417e-031 2.38542e-015 -3.18055e-015 5.6954 0.21 2.1184 -3.18055e-015 1.43125e-014 -3.18055e-015 3.9766 -1.54 2.3863 -6.36111e-015 1.59028e-015 -3.18055e-015 1.4042 -1.926 1.125 1.32417e-031 2.38542e-015 -3.18055e-015 2.0956 0.66 -0.3894 3.18055e-015 -3.18055e-015 -0 5.0395 -0.09 2.4971 -3.18055e-015 1.43125e-014 -3.18055e-015 3.7921 -1.552 1.4806 -6.36111e-015 1.59028e-015 -3.18055e-015 1.4655 -1.808 0.9609 1.32417e-031 2.38542e-015 -3.18055e-015 4.9141 -1.269 0.3591 -3.18055e-015 1.43125e-014 -3.18055e-015 3.1477 -1.685 0.8462 -6.36111e-015 1.59028e-015 -3.18055e-015 0.8055 -1.585 0.7955 1.32417e-031 2.38542e-015 -3.18055e-015 -1.7069 20.075 5.0056 15.9061 7.52985 -8.01314 -13.6458 -0.047 -4.849 -0.230088 2.39198 49.0129 -28.3255 -0.9759 2.2888 7.28025 -8.6547 7.58601 -22.1583 -0.53 10.8316 36.8663 -10.6519 26.9591 -0.786 0.112 2.5817 2.60958e-006 -2.23584e-008 -3.61345e-006 -0.3601 -0.878 4.2331 -8.82781e-032 -1.59028e-015 -3.18055e-015 -1.8127 -1.216 2.2227 4.77865e-007 6.86422e-007 -1.61533e-007 -0.9571 1.114 1.7695 6.36111e-015 -1.59028e-015 -3.18055e-015 -4.1246 0.487 4.1451 2.60958e-006 -2.23584e-008 -3.61345e-006 -3.4052 -1.454 2.7682 3.18055e-015 -3.97569e-015 -0 -1.4531 -1.795 1.2713 4.77865e-007 6.86422e-007 -1.61533e-007 -5.6954 0.21 2.1184 2.60958e-006 -2.23584e-008 -3.61345e-006 -3.9766 -1.54 2.3863 3.18055e-015 -3.97569e-015 -0 -1.4042 -1.926 1.125 4.77865e-007 6.86422e-007 -1.61533e-007 -2.0956 0.66 -0.3894 6.36111e-015 -1.59028e-015 -3.18055e-015 -5.0395 -0.09 2.4971 2.60958e-006 -2.23584e-008 -3.61345e-006 -3.7921 -1.552 1.4806 3.18055e-015 -3.97569e-015 -0 -1.4655 -1.808 0.9609 4.77865e-007 6.86422e-007 -1.61533e-007 -4.9141 -1.269 0.3592 2.60958e-006 -2.23584e-008 -3.61345e-006 -3.1477 -1.685 0.8462 3.18055e-015 -3.97569e-015 -0 -0.8055 -1.585 0.7955 4.77865e-007 6.86422e-007 -1.61533e-007 8.367 -8.2066 0.5982 28.3879 -50.2174 13.6856 2.1923 -43.463 -0.4932 -53.3589 28.4886 53.972 0.7333 -45.8593 -2.6451 16.0351 39.9627 -20.1871 -8.367 -8.2066 0.5982 -28.789 -58.5954 -13.4808 -2.1923 -43.463 -0.4931 64.5067 40.2295 -62.7651 -0.7333 -45.8593 -2.6451 -19.6503 37.3747 23.0493 
0.393703 81.8715 -3.83625 -166.667 -0.139464 6.93544e-010 0 -1.186 -1.5018 -0.0160671 -2.49629 -0.299945 -3.55271e-015 9.964 0.2134 -0.0452943 -4.99246 -0.601449 0 13.134 -3.2573 -0.0452977 -4.99246 -0.601449 3.55271e-015 20.686 -1.6905 -1.12692e-005 52.6256 1.44416e-005 0 7.238 -0.1237 3.96102e-006 -62.7741 2.83601e-006 1.7069 20.075 5.0056 -23.8097 10.9738 11.9876 13.6458 -0.047 -4.849 0.885015 0.173879 -72.4149 28.3255 -0.9759 2.2888 -15.9063 -10.3391 -20.9746 22.1583 -0.53 10.8316 -57.0102 -10.1956 -39.3219 0.786 0.112 2.5817 6.18198e-007 -2.63509e-007 -5.26599e-007 0.3601 -0.878 4.2331 -6.18198e-007 2.63509e-007 5.26599e-007 1.8127 -1.216 2.2227 6.18198e-007 -2.63509e-007 -5.26599e-007 0.9571 1.114 1.7695 -3.18055e-015 1.98785e-015 -3.57812e-015 4.1246 0.487 4.1451 6.18198e-007 -2.63509e-007 -5.26599e-007 3.4052 -1.454 2.7682 -6.18198e-007 2.63509e-007 5.26599e-007 1.4531 -1.795 1.2713 6.18198e-007 -2.63509e-007 -5.26599e-007 5.6954 0.21 2.1184 6.18198e-007 -2.63509e-007 -5.26599e-007 3.9766 -1.54 2.3863 -6.18198e-007 2.63509e-007 5.26599e-007 1.4042 -1.926 1.125 6.18198e-007 -2.63509e-007 -5.26599e-007 2.0956 0.66 -0.3894 -3.18055e-015 1.98785e-015 -3.57812e-015 5.0395 -0.09 2.4971 6.18198e-007 -2.63509e-007 -5.26599e-007 3.7921 -1.552 1.4806 -6.18198e-007 2.63509e-007 5.26599e-007 1.4655 -1.808 0.9609 6.18198e-007 -2.63509e-007 -5.26599e-007 4.9141 -1.269 0.3591 6.18198e-007 -2.63509e-007 -5.26599e-007 3.1477 -1.685 0.8462 -6.18198e-007 2.63509e-007 5.26599e-007 0.8055 -1.585 0.7955 6.18198e-007 -2.63509e-007 -5.26599e-007 -1.7069 20.075 5.0056 23.615 10.437 -11.7472 -13.6458 -0.047 -4.849 -0.858997 0.381438 73.1858 -28.3255 -0.9759 2.2888 14.069 -11.3551 19.5187 -22.1583 -0.53 10.8316 57.5436 -10.4247 37.6091 -0.786 0.112 2.5817 -1.13907e-006 3.21993e-007 -1.18537e-006 -0.3601 -0.878 4.2331 -2.42704e-006 -4.2343e-006 -2.50866e-006 -1.8127 -1.216 2.2227 -1.13907e-006 3.21993e-007 -1.18537e-006 -0.9571 1.114 1.7695 -6.89673e-034 1.98785e-016 1.98785e-016 -4.1246 0.487 4.1451 -1.13907e-006 3.21993e-007 -1.18537e-006 -3.4052 -1.454 2.7682 -2.42704e-006 -4.2343e-006 -2.50866e-006 -1.4531 -1.795 1.2713 -1.13907e-006 3.21993e-007 -1.18537e-006 -5.6954 0.21 2.1184 -1.13907e-006 3.21993e-007 -1.18537e-006 -3.9766 -1.54 2.3863 -2.42704e-006 -4.2343e-006 -2.50866e-006 -1.4042 -1.926 1.125 -1.13907e-006 3.21993e-007 -1.18537e-006 -2.0956 0.66 -0.3894 -6.89673e-034 1.98785e-016 1.98785e-016 -5.0395 -0.09 2.4971 -1.13907e-006 3.21993e-007 -1.18537e-006 -3.7921 -1.552 1.4806 -2.42704e-006 -4.2343e-006 -2.50866e-006 -1.4655 -1.808 0.9609 -1.13907e-006 3.21993e-007 -1.18537e-006 -4.9141 -1.269 0.3592 -1.13907e-006 3.21993e-007 -1.18537e-006 -3.1477 -1.685 0.8462 -2.42704e-006 -4.2343e-006 -2.50866e-006 -0.8055 -1.585 0.7955 -1.13907e-006 3.21993e-007 -1.18537e-006 8.367 -8.2066 0.5982 68.0413 -69.8128 42.8953 2.1923 -43.463 -0.4932 -93.3747 20.9483 81.2457 0.7333 -45.8593 -2.6451 37.3534 51.1591 -39.3901 -8.367 -8.2066 0.5982 -75.5919 -78.2898 -49.4958 -2.1923 -43.463 -0.4931 105.094 30.9783 -86.0805 -0.7333 -45.8593 -2.6451 -37.2123 51.8987 39.8193 
-0.886118 81.1511 -3.79699 180 -0.537949 -7.01671e-015 -1.11022e-016 -1.186 -1.5018 -0.0124816 -2.03416 -0.279246 0 9.964 0.2134 -0.0349236 -4.06825 -0.559464 0 13.134 -3.2573 -0.0349236 -4.06825 -0.559464 0 20.686 -1.6905 -8.49628e-006 48.9965 8.7309e-006 0 7.238 -0.1237 4.44507e-008 -59.8375 -1.66696e-007 1.7069 20.075 5.0056 -21.699 9.49876 11.0843 13.6458 -0.047 -4.849 0.812423 0.825812 -67.0705 28.3255 -0.9759 2.2888 -14.5955 -9.75981 -19.2793 22.1583 -0.53 10.8316 -51.9287 -11.2975 -36.9524 0.786 0.112 2.5817 -2.44831e-006 -7.36824e-007 -2.02969e-006 0.3601 -0.878 4.2331 -4.51713e-006 7.46693e-007 -2.26703e-007 1.8127 -1.216 2.2227 -3.33117e-006 1.79858e-007 -1.29931e-006 0.9571 1.114 1.7695 -2.04747e-032 9.44227e-016 1.2424e-015 4.1246 0.487 4.1451 -2.44831e-006 -7.36824e-007 -2.02969e-006 3.4052 -1.454 2.7682 -4.51713e-006 7.46693e-007 -2.26703e-007 1.4531 -1.795 1.2713 -3.33117e-006 1.79858e-007 -1.29931e-006 5.6954 0.21 2.1184 -2.44831e-006 -7.36824e-007 -2.02969e-006 3.9766 -1.54 2.3863 -4.51713e-006 7.46693e-007 -2.26703e-007 1.4042 -1.926 1.125 -3.33117e-006 1.79858e-007 -1.29931e-006 2.0956 0.66 -0.3894 -2.04747e-032 9.44227e-016 1.2424e-015 5.0395 -0.09 2.4971 -2.44831e-006 -7.36824e-007 -2.02969e-006 3.7921 -1.552 1.4806 -4.51713e-006 7.46693e-007 -2.26703e-007 1.4655 -1.808 0.9609 -3.33117e-006 1.79858e-007 -1.29931e-006 4.9141 -1.269 0.3591 -2.44831e-006 -7.36824e-007 -2.02969e-006 3.1477 -1.685 0.8462 -4.51713e-006 7.46693e-007 -2.26703e-007 0.8055 -1.585 0.7955 -3.33117e-006 1.79858e-007 -1.29931e-006 -1.7069 20.075 5.0056 21.5581 8.99155 -10.9561 -13.6458 -0.047 -4.849 -0.764524 1.03112 67.8384 -28.3255 -0.9759 2.2888 12.7773 -10.6928 17.9542 -22.1583 -0.53 10.8316 52.4182 -11.4875 35.3087 -0.786 0.112 2.5817 3.18055e-015 -3.97569e-016 2.98177e-015 -0.3601 -0.878 4.2331 5.31048e-032 -2.18663e-015 1.39149e-015 -1.8127 -1.216 2.2227 3.96562e-031 -4.96962e-015 4.57205e-015 -0.9571 1.114 1.7695 3.18055e-015 -3.97569e-016 2.98177e-015 -4.1246 0.487 4.1451 2.23799e-030 -1.17283e-014 1.09332e-014 -3.4052 -1.454 2.7682 1.79315e-031 -2.5842e-015 3.97569e-015 -1.4531 -1.795 1.2713 9.10368e-032 2.38542e-015 -2.18663e-015 -5.6954 0.21 2.1184 2.23799e-030 -1.17283e-014 1.09332e-014 -3.9766 -1.54 2.3863 1.79315e-031 -2.5842e-015 3.97569e-015 -1.4042 -1.926 1.125 9.10368e-032 2.38542e-015 -2.18663e-015 -2.0956 0.66 -0.3894 3.18055e-015 -3.97569e-016 2.98177e-015 -5.0395 -0.09 2.4971 2.23799e-030 -1.17283e-014 1.09332e-014 -3.7921 -1.552 1.4806 1.79315e-031 -2.5842e-015 3.97569e-015 -1.4655 -1.808 0.9609 9.10368e-032 2.38542e-015 -2.18663e-015 -4.9141 -1.269 0.3592 2.23799e-030 -1.17283e-014 1.09332e-014 -3.1477 -1.685 0.8462 1.79315e-031 -2.5842e-015 3.97569e-015 -0.8055 -1.585 0.7955 9.10368e-032 2.38542e-015 -2.18663e-015 8.367 -8.2066 0.5982 53.9034 -65.7558 31.5342 2.1923 -43.463 -0.4932 -85.1339 23.998 76.2304 0.7333 -45.8593 -2.6451 32.1962 48.9485 -34.4497 -8.367 -8.2066 0.5982 -55.6071 -74.6425 -32.5615 -2.1923 -43.463 -0.4931 96.5619 34.2068 -82.3659 -0.7333 -45.8593 -2.6451 -32.5712 49.3104 34.9786 
